<svg width="23" height="37" viewBox="0 0 23 37" fill="none" xmlns="http://www.w3.org/2000/svg">
<path d="M11.0214 2.93302C14.1471 6.9011 15.8156 11.7944 15.7551 16.8155V18.0141L16.7864 18.6416C18.1188 19.4482 19.1126 20.6993 19.5865 22.1669C19.1704 21.8605 18.7351 21.5803 18.2831 21.3278L15.5331 19.7838L15.039 22.9001C14.9962 23.1755 14.9388 23.4485 14.8671 23.718H7.16138C7.0468 23.3655 6.9537 23.0129 6.86776 22.6463L6.24472 19.8261L3.70956 21.2362C3.28603 21.473 2.87711 21.7344 2.48495 22.0188C2.96812 20.5682 3.94111 19.3242 5.24211 18.4935L6.22323 17.866V16.7521C6.24093 11.7513 7.92955 6.89523 11.0286 2.93302H11.0214ZM11.0286 0C10.8679 0.000390307 10.7127 0.0579856 10.5917 0.162162L10.5273 0.218566C6.39766 4.76564 4.10454 10.6454 4.08196 16.745C2.32955 17.8643 1.03238 19.5543 0.417141 21.5197C-0.198101 23.485 -0.0922939 25.6007 0.716072 27.4971C1.56764 25.6455 2.99119 24.1058 4.78378 23.0975C4.96356 23.8642 5.20298 24.6161 5.49993 25.3467C5.53759 25.4871 5.62106 25.6114 5.73751 25.7006C5.85396 25.7898 5.99694 25.8388 6.14446 25.8402H16.0846C16.2851 25.8402 16.4856 25.6498 16.5859 25.3537C16.8757 24.6592 17.0777 23.9322 17.1874 23.1892C18.9834 24.1932 20.4082 25.7342 21.2551 27.5887C22.1123 25.7017 22.245 23.5727 21.6286 21.5967C21.0123 19.6206 19.6887 17.9319 17.9036 16.8437C17.9744 10.7082 15.6934 4.77179 11.5156 0.218566C11.4533 0.150085 11.3772 0.0952397 11.2921 0.0575871C11.2069 0.0199344 11.1147 0.000314749 11.0214 0H11.0286Z" fill="#4EA8DE"/>
<path d="M11.0214 16.1598C10.4713 16.1598 9.9336 15.9995 9.47596 15.699C9.01831 15.3986 8.66125 14.9715 8.44978 14.4715C8.23831 13.9716 8.1819 13.4213 8.28766 12.8898C8.39343 12.3584 8.65662 11.8697 9.04408 11.4853C9.43153 11.1009 9.92591 10.838 10.4649 10.7298C11.0038 10.6216 11.5633 10.6729 12.0727 10.8773C12.5821 11.0816 13.0186 11.4298 13.3273 11.8781C13.636 12.3263 13.803 12.8545 13.8072 13.396C13.8158 13.7469 13.754 14.0961 13.6255 14.4235C13.4969 14.751 13.3041 15.0503 13.0581 15.3043C12.812 15.5583 12.5175 15.7622 12.1914 15.9041C11.8653 16.0461 11.5139 16.1234 11.1575 16.1316C11.1124 16.1387 11.0665 16.1387 11.0214 16.1316V16.1598Z" fill="#4EA8DE"/>
<path d="M14.8958 27.5958C14.7166 27.5901 14.538 27.6198 14.3706 27.683C14.2033 27.7462 14.0504 27.8416 13.921 27.9638C13.7915 28.086 13.6882 28.2323 13.617 28.3943C13.5459 28.5563 13.5083 28.7307 13.5064 28.9072V33.067C13.5064 33.4297 13.6528 33.7776 13.9134 34.0342C14.1739 34.2907 14.5273 34.4348 14.8958 34.4348C15.2642 34.4348 15.6176 34.2907 15.8782 34.0342C16.1387 33.7776 16.2851 33.4297 16.2851 33.067V28.9636C16.2908 28.7877 16.2609 28.6126 16.1972 28.4482C16.1334 28.2839 16.0371 28.1337 15.9138 28.0064C15.7905 27.879 15.6426 27.7772 15.4789 27.7067C15.3152 27.6362 15.1389 27.5985 14.9602 27.5958H14.8958Z" fill="#5E60CE"/>
<path d="M7.16138 27.5958C6.97915 27.5863 6.79684 27.613 6.6253 27.6743C6.45376 27.7356 6.2965 27.8302 6.16287 27.9525C6.02924 28.0749 5.92197 28.2225 5.84745 28.3865C5.77293 28.5505 5.73268 28.7275 5.72909 28.9072V33.067C5.72909 33.4297 5.87547 33.7776 6.13602 34.0342C6.39656 34.2907 6.74994 34.4348 7.11842 34.4348C7.48689 34.4348 7.84027 34.2907 8.10082 34.0342C8.36136 33.7776 8.50774 33.4297 8.50774 33.067V28.9636C8.51346 28.7877 8.48358 28.6126 8.41983 28.4482C8.35608 28.2839 8.25974 28.1337 8.13642 28.0064C8.01311 27.879 7.86529 27.7772 7.70157 27.7067C7.53786 27.6362 7.36153 27.5985 7.18287 27.5958H7.16138Z" fill="#5E60CE"/>
<path d="M10.9212 27.5958C10.7425 27.592 10.5648 27.623 10.3982 27.6869C10.2317 27.7508 10.0795 27.8463 9.95053 27.9681C9.82151 28.0899 9.71813 28.2355 9.64629 28.3966C9.57444 28.5578 9.53555 28.7312 9.53183 28.9072V34.6392C9.53183 35.002 9.6782 35.3499 9.93875 35.6064C10.1993 35.8629 10.5527 36.007 10.9212 36.007C11.2896 36.007 11.643 35.8629 11.9036 35.6064C12.1641 35.3499 12.3105 35.002 12.3105 34.6392V28.9988C12.3162 28.823 12.2863 28.6478 12.2226 28.4835C12.1588 28.3191 12.0625 28.1689 11.9392 28.0416C11.8158 27.9143 11.668 27.8124 11.5043 27.7419C11.3406 27.6714 11.1643 27.6337 10.9856 27.631L10.9212 27.5958Z" fill="#5E60CE"/>
</svg>
